<svg xmlns="http://www.w3.org/2000/svg" width="16.667" height="16.667" viewBox="0 0 16.667 16.667" fill="none">
  <path d="M 3.208 12.583 C 3.917 12.042 4.708 11.615 5.583 11.302 C 6.458 10.99 7.375 10.833 8.333 10.833 C 9.292 10.833 10.208 10.99 11.083 11.302 C 11.958 11.615 12.75 12.042 13.458 12.583 C 13.944 12.014 14.323 11.368 14.594 10.646 C 14.865 9.924 15 9.153 15 8.333 C 15 6.486 14.351 4.913 13.052 3.615 C 11.753 2.316 10.181 1.667 8.333 1.667 C 6.486 1.667 4.913 2.316 3.615 3.615 C 2.316 4.913 1.667 6.486 1.667 8.333 C 1.667 9.153 1.802 9.924 2.073 10.646 C 2.344 11.368 2.722 12.014 3.208 12.583 L 3.208 12.583 M 8.333 9.167 C 7.514 9.167 6.823 8.885 6.26 8.323 C 5.698 7.76 5.417 7.069 5.417 6.25 C 5.417 5.431 5.698 4.74 6.26 4.177 C 6.823 3.615 7.514 3.333 8.333 3.333 C 9.153 3.333 9.844 3.615 10.406 4.177 C 10.969 4.74 11.25 5.431 11.25 6.25 C 11.25 7.069 10.969 7.76 10.406 8.323 C 9.844 8.885 9.153 9.167 8.333 9.167 L 8.333 9.167 M 8.333 16.667 C 7.181 16.667 6.097 16.448 5.083 16.01 C 4.069 15.573 3.188 14.979 2.438 14.229 C 1.688 13.479 1.094 12.597 0.656 11.583 C 0.219 10.569 0 9.486 0 8.333 C 0 7.181 0.219 6.097 0.656 5.083 C 1.094 4.069 1.688 3.188 2.438 2.438 C 3.188 1.688 4.069 1.094 5.083 0.656 C 6.097 0.219 7.181 0 8.333 0 C 9.486 0 10.569 0.219 11.583 0.656 C 12.597 1.094 13.479 1.688 14.229 2.438 C 14.979 3.188 15.573 4.069 16.01 5.083 C 16.448 6.097 16.667 7.181 16.667 8.333 C 16.667 9.486 16.448 10.569 16.01 11.583 C 15.573 12.597 14.979 13.479 14.229 14.229 C 13.479 14.979 12.597 15.573 11.583 16.01 C 10.569 16.448 9.486 16.667 8.333 16.667 L 8.333 16.667 M 8.333 15 C 9.069 15 9.764 14.892 10.417 14.677 C 11.069 14.462 11.667 14.153 12.208 13.75 C 11.667 13.347 11.069 13.038 10.417 12.823 C 9.764 12.608 9.069 12.5 8.333 12.5 C 7.597 12.5 6.903 12.608 6.25 12.823 C 5.597 13.038 5 13.347 4.458 13.75 C 5 14.153 5.597 14.462 6.25 14.677 C 6.903 14.892 7.597 15 8.333 15 L 8.333 15 M 8.333 7.5 C 8.694 7.5 8.993 7.382 9.229 7.146 C 9.465 6.91 9.583 6.611 9.583 6.25 C 9.583 5.889 9.465 5.59 9.229 5.354 C 8.993 5.118 8.694 5 8.333 5 C 7.972 5 7.674 5.118 7.438 5.354 C 7.201 5.59 7.083 5.889 7.083 6.25 C 7.083 6.611 7.201 6.91 7.438 7.146 C 7.674 7.382 7.972 7.5 8.333 7.5 L 8.333 7.5 M 8.333 6.25 L 8.333 6.25 L 8.333 6.25 L 8.333 6.25 L 8.333 6.25 L 8.333 6.25 L 8.333 6.25 L 8.333 6.25 L 8.333 6.25 L 8.333 6.25 M 8.333 13.75 L 8.333 13.75 L 8.333 13.75 L 8.333 13.75 L 8.333 13.75 L 8.333 13.75 L 8.333 13.75 L 8.333 13.75 L 8.333 13.75 L 8.333 13.75" fill="currentColor" fill-rule="nonzero"></path>
</svg>