<svg xmlns="http://www.w3.org/2000/svg" width="21" height="20.500" viewBox="0 0 21 20.500" fill="none">
  <path d="M 15 11 L 10.85 6.95 C 10.333 6.45 9.896 5.896 9.538 5.287 C 9.179 4.679 9 4.017 9 3.3 C 9 2.383 9.321 1.604 9.962 0.962 C 10.604 0.321 11.383 0 12.3 0 C 12.833 0 13.333 0.113 13.8 0.338 C 14.267 0.563 14.667 0.867 15 1.25 C 15.333 0.867 15.733 0.563 16.2 0.338 C 16.667 0.113 17.167 0 17.7 0 C 18.617 0 19.396 0.321 20.038 0.962 C 20.679 1.604 21 2.383 21 3.3 C 21 4.017 20.825 4.679 20.475 5.287 C 20.125 5.896 19.692 6.45 19.175 6.95 L 15 11 L 15 11 M 15 8.2 L 17.725 5.525 C 18.042 5.208 18.333 4.871 18.6 4.512 C 18.867 4.154 19 3.75 19 3.3 C 19 2.933 18.875 2.625 18.625 2.375 C 18.375 2.125 18.067 2 17.7 2 C 17.467 2 17.246 2.046 17.038 2.138 C 16.829 2.229 16.65 2.367 16.5 2.55 L 15 4.35 L 13.5 2.55 C 13.35 2.367 13.171 2.229 12.962 2.138 C 12.754 2.046 12.533 2 12.3 2 C 11.933 2 11.625 2.125 11.375 2.375 C 11.125 2.625 11 2.933 11 3.3 C 11 3.75 11.133 4.154 11.4 4.512 C 11.667 4.871 11.958 5.208 12.275 5.525 L 15 8.2 L 15 8.2 M 6 16.5 L 12.95 18.4 L 18.9 16.55 C 18.817 16.4 18.696 16.271 18.538 16.163 C 18.379 16.054 18.2 16 18 16 L 12.95 16 C 12.5 16 12.142 15.983 11.875 15.95 C 11.608 15.917 11.333 15.85 11.05 15.75 L 8.725 14.975 L 9.275 13.025 L 11.3 13.7 C 11.583 13.783 11.917 13.85 12.3 13.9 C 12.683 13.95 13.25 13.983 14 14 L 14 14 L 14 14 L 14 14 C 14 13.817 13.946 13.642 13.837 13.475 C 13.729 13.308 13.6 13.2 13.45 13.15 L 7.6 11 L 7.6 11 L 7.6 11 L 6 11 L 6 16.5 L 6 16.5 M 0 20 L 0 9 L 7.6 9 C 7.717 9 7.833 9.013 7.95 9.038 C 8.067 9.063 8.175 9.092 8.275 9.125 L 14.15 11.3 C 14.7 11.5 15.146 11.85 15.488 12.35 C 15.829 12.85 16 13.4 16 14 L 18 14 C 18.833 14 19.542 14.275 20.125 14.825 C 20.708 15.375 21 16.1 21 17 L 21 18 L 13 20.5 L 6 18.55 L 6 18.55 L 6 20 L 0 20 L 0 20 M 2 18 L 4 18 L 4 11 L 2 11 L 2 18 L 2 18 M 15 4.35 L 15 4.35 L 15 4.35 L 15 4.35 L 15 4.35 L 15 4.35 L 15 4.35 L 15 4.35 L 15 4.35 L 15 4.35 L 15 4.35 L 15 4.35 L 15 4.35 L 15 4.35 L 15 4.35 L 15 4.35 L 15 4.35 L 15 4.35" fill="currentColor" fill-rule="nonzero"></path>
</svg>