<svg xmlns="http://www.w3.org/2000/svg" width="16.667" height="13.333" viewBox="0 0 16.667 13.333" fill="none">
  <path d="M 1.667 13.333 C 1.208 13.333 0.816 13.17 0.49 12.844 C 0.163 12.517 0 12.125 0 11.667 L 0 1.667 C 0 1.208 0.163 0.816 0.49 0.49 C 0.816 0.163 1.208 0 1.667 0 L 11.667 0 C 12.125 0 12.517 0.163 12.844 0.49 C 13.17 0.816 13.333 1.208 13.333 1.667 L 13.333 5.417 L 16.667 2.083 L 16.667 11.25 L 13.333 7.917 L 13.333 11.667 C 13.333 12.125 13.17 12.517 12.844 12.844 C 12.517 13.17 12.125 13.333 11.667 13.333 L 1.667 13.333 L 1.667 13.333 M 1.667 11.667 L 11.667 11.667 L 11.667 11.667 L 11.667 11.667 L 11.667 1.667 L 11.667 1.667 L 11.667 1.667 L 1.667 1.667 L 1.667 1.667 L 1.667 1.667 L 1.667 11.667 L 1.667 11.667 L 1.667 11.667 L 1.667 11.667 M 1.667 11.667 L 1.667 11.667 L 1.667 11.667 L 1.667 1.667 L 1.667 1.667 L 1.667 1.667 L 1.667 1.667 L 1.667 1.667 L 1.667 1.667 L 1.667 11.667 L 1.667 11.667 L 1.667 11.667 L 1.667 11.667 L 1.667 11.667" fill="currentColor" fill-rule="nonzero"></path>
</svg>