<svg xmlns="http://www.w3.org/2000/svg" width="12.750" height="15" viewBox="0 0 12.750 15" fill="none">
  <path d="M 4.5 12 C 4.088 12 3.734 11.853 3.441 11.559 C 3.147 11.266 3 10.913 3 10.5 L 3 1.5 C 3 1.087 3.147 0.734 3.441 0.441 C 3.734 0.147 4.088 0 4.5 0 L 11.25 0 C 11.663 0 12.016 0.147 12.309 0.441 C 12.603 0.734 12.75 1.087 12.75 1.5 L 12.75 10.5 C 12.75 10.913 12.603 11.266 12.309 11.559 C 12.016 11.853 11.663 12 11.25 12 L 4.5 12 L 4.5 12 M 4.5 10.5 L 11.25 10.5 L 11.25 10.5 L 11.25 10.5 L 11.25 1.5 L 11.25 1.5 L 11.25 1.5 L 4.5 1.5 L 4.5 1.5 L 4.5 1.5 L 4.5 10.5 L 4.5 10.5 L 4.5 10.5 L 4.5 10.5 M 1.5 15 C 1.087 15 0.734 14.853 0.441 14.559 C 0.147 14.266 0 13.913 0 13.5 L 0 3 L 1.5 3 L 1.5 13.5 L 1.5 13.5 L 1.5 13.5 L 9.75 13.5 L 9.75 15 L 1.5 15 L 1.5 15 M 4.5 10.5 L 4.5 10.5 L 4.5 10.5 L 4.5 1.5 L 4.5 1.5 L 4.5 1.5 L 4.5 1.5 L 4.5 1.5 L 4.5 1.5 L 4.5 10.5 L 4.5 10.5 L 4.5 10.5 L 4.5 10.5 L 4.5 10.5" fill="currentColor" fill-rule="nonzero"></path>
</svg>