<svg xmlns="http://www.w3.org/2000/svg" width="17.521" height="15.833" viewBox="0 0 17.521 15.833" fill="none">
  <path d="M 10.063 8.104 C 11.076 7.354 11.868 6.531 12.438 5.635 C 13.007 4.74 13.292 3.847 13.292 2.958 C 13.292 2.514 13.219 2.188 13.073 1.979 C 12.927 1.771 12.729 1.667 12.479 1.667 C 11.826 1.667 11.25 2.219 10.75 3.323 C 10.25 4.427 10 5.674 10 7.063 C 10 7.257 10.003 7.441 10.01 7.615 C 10.017 7.788 10.035 7.951 10.063 8.104 L 10.063 8.104 M 0.833 15.833 L 0.833 14.167 L 2.5 14.167 L 2.5 15.833 L 0.833 15.833 L 0.833 15.833 M 4.167 15.833 L 4.167 14.167 L 5.833 14.167 L 5.833 15.833 L 4.167 15.833 L 4.167 15.833 M 7.5 15.833 L 7.5 14.167 L 9.167 14.167 L 9.167 15.833 L 7.5 15.833 L 7.5 15.833 M 10.833 15.833 L 10.833 14.167 L 12.5 14.167 L 12.5 15.833 L 10.833 15.833 L 10.833 15.833 M 14.167 15.833 L 14.167 14.167 L 15.833 14.167 L 15.833 15.833 L 14.167 15.833 L 14.167 15.833 M 1.167 12.5 L 0 11.333 L 1.333 10 L 0 8.667 L 1.167 7.5 L 2.5 8.833 L 3.833 7.5 L 5 8.667 L 3.667 10 L 5 11.333 L 3.833 12.5 L 2.5 11.167 L 1.167 12.5 L 1.167 12.5 M 11.208 11.667 C 10.792 11.667 10.41 11.587 10.063 11.427 C 9.715 11.267 9.417 11.007 9.167 10.646 C 8.819 10.84 8.462 11.014 8.094 11.167 C 7.726 11.319 7.347 11.472 6.958 11.625 L 6.375 10.063 C 6.764 9.924 7.135 9.774 7.49 9.615 C 7.844 9.455 8.188 9.285 8.521 9.104 C 8.451 8.799 8.399 8.465 8.365 8.104 C 8.33 7.743 8.313 7.354 8.313 6.938 C 8.313 4.938 8.708 3.281 9.5 1.969 C 10.292 0.656 11.285 0 12.479 0 C 13.201 0 13.792 0.267 14.25 0.802 C 14.708 1.337 14.938 2.083 14.938 3.042 C 14.938 4.236 14.559 5.417 13.802 6.583 C 13.045 7.75 11.993 8.799 10.646 9.729 C 10.743 9.826 10.844 9.899 10.948 9.948 C 11.052 9.997 11.16 10.021 11.271 10.021 C 11.632 10.021 12.052 9.792 12.531 9.333 C 13.01 8.875 13.444 8.271 13.833 7.521 L 15.354 8.229 C 15.257 8.465 15.181 8.75 15.125 9.083 C 15.069 9.417 15.076 9.708 15.146 9.958 C 15.285 9.889 15.448 9.771 15.635 9.604 C 15.823 9.438 16.014 9.229 16.208 8.979 L 17.521 10 C 17.16 10.5 16.743 10.903 16.271 11.208 C 15.799 11.514 15.361 11.667 14.958 11.667 C 14.667 11.667 14.406 11.58 14.177 11.406 C 13.948 11.233 13.757 10.965 13.604 10.604 C 13.215 10.951 12.819 11.215 12.417 11.396 C 12.014 11.576 11.611 11.667 11.208 11.667 L 11.208 11.667" fill="currentColor" fill-rule="nonzero"></path>
</svg>