<svg xmlns="http://www.w3.org/2000/svg" width="53.375" height="53.250" viewBox="0 0 53.375 53.250" fill="none">
  <path d="M 53.375 38.625 L 43.375 28.625 L 43.375 32.813 L 38.375 27.813 L 38.375 9.875 L 38.375 9.875 L 38.375 9.875 L 20.438 9.875 L 15.438 4.875 L 38.375 4.875 C 39.75 4.875 40.927 5.365 41.906 6.344 C 42.885 7.323 43.375 8.5 43.375 9.875 L 43.375 21.125 L 53.375 11.125 L 53.375 38.625 L 53.375 38.625 M 49.75 53.25 L 0 3.5 L 3.5 0 L 53.25 49.75 L 49.75 53.25 L 49.75 53.25 M 29.5 18.938 L 29.5 18.938 L 29.5 18.938 L 29.5 18.938 L 29.5 18.938 L 29.5 18.938 L 29.5 18.938 M 22.25 25.875 L 22.25 25.875 L 22.25 25.875 L 22.25 25.875 L 22.25 25.875 L 22.25 25.875 L 22.25 25.875 L 22.25 25.875 L 22.25 25.875 L 22.25 25.875 L 22.25 25.875 M 8.375 4.875 L 13.375 9.875 L 8.375 9.875 L 8.375 9.875 L 8.375 9.875 L 8.375 39.875 L 8.375 39.875 L 8.375 39.875 L 38.375 39.875 L 38.375 39.875 L 38.375 39.875 L 38.375 34.875 L 43.375 39.875 L 43.375 39.875 C 43.375 41.25 42.885 42.427 41.906 43.406 C 40.927 44.385 39.75 44.875 38.375 44.875 L 8.375 44.875 C 7 44.875 5.823 44.385 4.844 43.406 C 3.865 42.427 3.375 41.25 3.375 39.875 L 3.375 9.875 C 3.375 8.5 3.865 7.323 4.844 6.344 C 5.823 5.365 7 4.875 8.375 4.875 L 8.375 4.875 L 8.375 4.875" fill="currentColor" fill-rule="nonzero"></path>
</svg>