<svg xmlns="http://www.w3.org/2000/svg" width="13.333" height="16.667" viewBox="0 0 13.333 16.667" fill="none">
  <path d="M 0 14.167 L 0 12.5 L 1.667 12.5 L 1.667 6.667 C 1.667 5.514 2.014 4.49 2.708 3.594 C 3.403 2.698 4.306 2.111 5.417 1.833 L 5.417 1.25 C 5.417 0.903 5.538 0.608 5.781 0.365 C 6.024 0.122 6.319 0 6.667 0 C 7.014 0 7.309 0.122 7.552 0.365 C 7.795 0.608 7.917 0.903 7.917 1.25 L 7.917 1.833 C 9.028 2.111 9.931 2.698 10.625 3.594 C 11.319 4.49 11.667 5.514 11.667 6.667 L 11.667 12.5 L 13.333 12.5 L 13.333 14.167 L 0 14.167 L 0 14.167 M 6.667 7.917 L 6.667 7.917 L 6.667 7.917 L 6.667 7.917 L 6.667 7.917 L 6.667 7.917 L 6.667 7.917 L 6.667 7.917 L 6.667 7.917 M 6.667 16.667 C 6.208 16.667 5.816 16.503 5.49 16.177 C 5.163 15.851 5 15.458 5 15 L 8.333 15 C 8.333 15.458 8.17 15.851 7.844 16.177 C 7.517 16.503 7.125 16.667 6.667 16.667 L 6.667 16.667 M 3.333 12.5 L 10 12.5 L 10 6.667 C 10 5.75 9.674 4.965 9.021 4.313 C 8.368 3.66 7.583 3.333 6.667 3.333 C 5.75 3.333 4.965 3.66 4.313 4.313 C 3.66 4.965 3.333 5.75 3.333 6.667 L 3.333 12.5 L 3.333 12.5" fill="currentColor" fill-rule="nonzero"></path>
</svg>