<svg xmlns="http://www.w3.org/2000/svg" width="16.667" height="16.667" viewBox="0 0 16.667 16.667" fill="none">
  <path d="M 8.292 13.333 C 8.583 13.333 8.83 13.233 9.031 13.031 C 9.233 12.83 9.333 12.583 9.333 12.292 C 9.333 12 9.233 11.753 9.031 11.552 C 8.83 11.351 8.583 11.25 8.292 11.25 C 8 11.25 7.753 11.351 7.552 11.552 C 7.351 11.753 7.25 12 7.25 12.292 C 7.25 12.583 7.351 12.83 7.552 13.031 C 7.753 13.233 8 13.333 8.292 13.333 L 8.292 13.333 M 7.542 10.125 L 9.083 10.125 C 9.083 9.667 9.135 9.306 9.24 9.042 C 9.344 8.778 9.639 8.417 10.125 7.958 C 10.486 7.597 10.771 7.253 10.979 6.927 C 11.188 6.601 11.292 6.208 11.292 5.75 C 11.292 4.972 11.007 4.375 10.438 3.958 C 9.868 3.542 9.194 3.333 8.417 3.333 C 7.625 3.333 6.983 3.542 6.49 3.958 C 5.997 4.375 5.653 4.875 5.458 5.458 L 6.833 6 C 6.903 5.75 7.059 5.479 7.302 5.188 C 7.545 4.896 7.917 4.75 8.417 4.75 C 8.861 4.75 9.194 4.872 9.417 5.115 C 9.639 5.358 9.75 5.625 9.75 5.917 C 9.75 6.194 9.667 6.455 9.5 6.698 C 9.333 6.941 9.125 7.167 8.875 7.375 C 8.264 7.917 7.889 8.326 7.75 8.604 C 7.611 8.882 7.542 9.389 7.542 10.125 L 7.542 10.125 M 8.333 16.667 C 7.181 16.667 6.097 16.448 5.083 16.01 C 4.069 15.573 3.188 14.979 2.438 14.229 C 1.688 13.479 1.094 12.597 0.656 11.583 C 0.219 10.569 0 9.486 0 8.333 C 0 7.181 0.219 6.097 0.656 5.083 C 1.094 4.069 1.688 3.188 2.438 2.438 C 3.188 1.688 4.069 1.094 5.083 0.656 C 6.097 0.219 7.181 0 8.333 0 C 9.486 0 10.569 0.219 11.583 0.656 C 12.597 1.094 13.479 1.688 14.229 2.438 C 14.979 3.188 15.573 4.069 16.01 5.083 C 16.448 6.097 16.667 7.181 16.667 8.333 C 16.667 9.486 16.448 10.569 16.01 11.583 C 15.573 12.597 14.979 13.479 14.229 14.229 C 13.479 14.979 12.597 15.573 11.583 16.01 C 10.569 16.448 9.486 16.667 8.333 16.667 L 8.333 16.667 M 8.333 15 C 10.194 15 11.771 14.354 13.063 13.063 C 14.354 11.771 15 10.194 15 8.333 C 15 6.472 14.354 4.896 13.063 3.604 C 11.771 2.313 10.194 1.667 8.333 1.667 C 6.472 1.667 4.896 2.313 3.604 3.604 C 2.313 4.896 1.667 6.472 1.667 8.333 C 1.667 10.194 2.313 11.771 3.604 13.063 C 4.896 14.354 6.472 15 8.333 15 L 8.333 15 M 8.333 8.333 L 8.333 8.333 L 8.333 8.333 L 8.333 8.333 L 8.333 8.333 L 8.333 8.333 L 8.333 8.333 L 8.333 8.333 L 8.333 8.333 L 8.333 8.333" fill="currentColor" fill-rule="nonzero"></path>
</svg>