<svg xmlns="http://www.w3.org/2000/svg" width="22.100" height="20" viewBox="0 0 22.100 20" fill="none">
  <path d="M 10.9 20 L 15.45 8 L 17.55 8 L 22.1 20 L 20 20 L 18.925 16.95 L 14.075 16.95 L 13 20 L 10.9 20 L 10.9 20 M 3 17 L 1.6 15.6 L 6.65 10.55 C 6.067 9.967 5.537 9.3 5.063 8.55 C 4.588 7.8 4.15 6.95 3.75 6 L 5.85 6 C 6.183 6.65 6.517 7.217 6.85 7.7 C 7.183 8.183 7.583 8.667 8.05 9.15 C 8.6 8.6 9.171 7.829 9.762 6.838 C 10.354 5.846 10.8 4.9 11.1 4 L 0 4 L 0 2 L 7 2 L 7 0 L 9 0 L 9 2 L 16 2 L 16 4 L 13.1 4 C 12.75 5.2 12.225 6.433 11.525 7.7 C 10.825 8.967 10.133 9.933 9.45 10.6 L 11.85 13.05 L 11.1 15.1 L 8.05 11.975 L 3 17 L 3 17 M 14.7 15.2 L 18.3 15.2 L 16.5 10.1 L 14.7 15.2 L 14.7 15.2" fill="currentColor" fill-rule="nonzero"></path>
</svg>