<svg xmlns="http://www.w3.org/2000/svg" width="22.019" height="22.014" viewBox="0 0 22.019 22.014" fill="none">
  <path d="M 6.644 17.916 L 0.819 16.791 C 0.535 16.741 0.319 16.603 0.169 16.378 C 0.019 16.153 -0.031 15.907 0.019 15.641 C 0.069 15.357 0.206 15.141 0.431 14.991 C 0.656 14.841 0.91 14.791 1.194 14.841 L 7.194 15.966 L 6.644 17.916 L 6.644 17.916 M 7.594 14.516 L 0.844 12.666 C 0.577 12.582 0.377 12.424 0.244 12.191 C 0.11 11.957 0.085 11.707 0.169 11.441 C 0.252 11.157 0.406 10.949 0.631 10.816 C 0.856 10.682 1.102 10.657 1.369 10.741 L 8.119 12.591 L 7.594 14.516 L 7.594 14.516 M 1.769 21.216 C 1.485 21.182 1.252 21.062 1.069 20.853 C 0.885 20.645 0.81 20.399 0.844 20.116 C 0.877 19.832 0.998 19.603 1.206 19.428 C 1.415 19.253 1.66 19.182 1.944 19.216 L 10.569 19.991 C 11.052 20.041 11.494 19.928 11.894 19.653 C 12.294 19.378 12.56 19.007 12.694 18.541 L 13.969 13.916 C 14.002 13.816 14.015 13.707 14.006 13.591 C 13.998 13.474 13.969 13.366 13.919 13.266 L 12.544 10.016 L 12.419 13.291 L 3.769 8.791 C 3.519 8.657 3.352 8.457 3.269 8.191 C 3.185 7.924 3.21 7.674 3.344 7.441 C 3.477 7.191 3.677 7.024 3.944 6.941 C 4.21 6.857 4.46 6.882 4.694 7.016 L 10.544 10.066 L 10.619 8.316 C 10.635 8.016 10.71 7.749 10.844 7.516 C 10.977 7.282 11.152 7.091 11.369 6.941 C 11.585 6.774 11.823 6.662 12.081 6.603 C 12.34 6.545 12.61 6.557 12.894 6.641 L 13.319 6.816 L 15.769 12.491 C 15.902 12.807 15.977 13.132 15.994 13.466 C 16.01 13.799 15.977 14.132 15.894 14.466 L 14.619 19.091 C 14.352 20.024 13.823 20.766 13.031 21.316 C 12.24 21.866 11.36 22.091 10.394 21.991 L 1.769 21.216 L 1.769 21.216 M 6.119 4.216 C 6.335 4.032 6.577 3.957 6.844 3.991 C 7.11 4.024 7.335 4.149 7.519 4.366 L 9.519 6.791 C 9.435 6.924 9.369 7.066 9.319 7.216 C 9.269 7.366 9.227 7.516 9.194 7.666 L 6.494 6.266 L 5.969 5.641 C 5.785 5.424 5.706 5.178 5.731 4.903 C 5.756 4.628 5.885 4.399 6.119 4.216 L 6.119 4.216 M 8.919 1.091 C 9.152 0.924 9.402 0.866 9.669 0.916 C 9.935 0.966 10.152 1.107 10.319 1.341 L 12.919 5.116 L 12.919 5.116 C 12.552 5.032 12.185 5.032 11.819 5.116 C 11.452 5.199 11.102 5.332 10.769 5.516 L 8.669 2.466 C 8.502 2.232 8.444 1.982 8.494 1.716 C 8.544 1.449 8.685 1.241 8.919 1.091 L 8.919 1.091 M 13.919 0.091 C 14.185 -0.026 14.444 -0.03 14.694 0.078 C 14.944 0.187 15.127 0.366 15.244 0.616 L 17.769 6.716 L 18.919 5.416 C 19.102 5.216 19.319 5.066 19.569 4.966 C 19.819 4.866 20.085 4.824 20.369 4.841 C 20.652 4.874 20.91 4.953 21.144 5.078 C 21.377 5.203 21.577 5.382 21.744 5.616 L 22.019 6.016 L 20.219 11.941 C 20.119 12.274 19.969 12.578 19.769 12.853 C 19.569 13.128 19.327 13.357 19.044 13.541 L 17.394 14.641 C 17.477 14.257 17.51 13.866 17.494 13.466 C 17.477 13.066 17.402 12.674 17.269 12.291 L 17.919 11.891 C 18.019 11.824 18.098 11.745 18.156 11.653 C 18.215 11.562 18.26 11.457 18.294 11.341 L 19.319 7.991 L 17.119 10.416 L 13.394 1.391 C 13.294 1.141 13.294 0.887 13.394 0.628 C 13.494 0.37 13.669 0.191 13.919 0.091 L 13.919 0.091 M 10.094 15.791 L 10.094 15.791 L 10.094 15.791 L 10.094 15.791 L 10.094 15.791 L 10.094 15.791 L 10.094 15.791 L 10.094 15.791 L 10.094 15.791 L 10.094 15.791 L 10.094 15.791 L 10.094 15.791 M 17.119 10.416 L 17.119 10.416 L 17.119 10.416 L 17.119 10.416 L 17.119 10.416 L 17.119 10.416 L 17.119 10.416 L 17.119 10.416 L 17.119 10.416 L 17.119 10.416" fill="currentColor" fill-rule="nonzero"></path>
</svg>