<svg xmlns="http://www.w3.org/2000/svg" width="20" height="20" viewBox="0 0 20 20" fill="none">
  <path d="M 20 20 L 16 16 L 6 16 C 5.45 16 4.979 15.804 4.588 15.413 C 4.196 15.021 4 14.55 4 14 L 4 13 L 15 13 C 15.55 13 16.021 12.804 16.413 12.413 C 16.804 12.021 17 11.55 17 11 L 17 4 L 18 4 C 18.55 4 19.021 4.196 19.413 4.588 C 19.804 4.979 20 5.45 20 6 L 20 20 L 20 20 M 2 10.175 L 3.175 9 L 13 9 L 13 9 L 13 9 L 13 2 L 13 2 L 13 2 L 2 2 L 2 2 L 2 2 L 2 10.175 L 2 10.175 M 0 15 L 0 2 C 0 1.45 0.196 0.979 0.587 0.587 C 0.979 0.196 1.45 0 2 0 L 13 0 C 13.55 0 14.021 0.196 14.413 0.587 C 14.804 0.979 15 1.45 15 2 L 15 9 C 15 9.55 14.804 10.021 14.413 10.413 C 14.021 10.804 13.55 11 13 11 L 4 11 L 0 15 L 0 15 M 2 9 L 2 2 L 2 2 L 2 2 L 2 2 L 2 2 L 2 2 L 2 9 L 2 9 L 2 9 L 2 9 L 2 9 L 2 9" fill="currentColor" fill-rule="nonzero"></path>
</svg>